<svg width="26" height="26" viewBox="0 0 26 26" fill="none" xmlns="http://www.w3.org/2000/svg">
<path d="M9.58903 17.0936C9.21224 17.0936 8.90674 17.399 8.90674 17.7758C8.90674 18.1526 9.21224 18.4581 9.58903 18.4581H16.4113C16.7881 18.4581 17.0936 18.1526 17.0936 17.7758C17.0936 17.399 16.7881 17.0936 16.4113 17.0936H9.58903Z" fill="white"/>
<path fill-rule="evenodd" clip-rule="evenodd" d="M3.02982 1.75727C3.14108 1.31225 3.54116 0.999878 4.00005 0.999878H21.9999C22.4587 0.999878 22.8588 1.31227 22.9701 1.75727L24.9701 9.75736C24.9899 9.83655 25 9.91811 25 9.99987C25 11.2136 24.3416 12.2363 23.4284 12.9212C23.292 13.0236 23.149 13.1192 23 13.2081V21.9998C23 23.6567 21.6568 24.9999 19.9999 24.9999H6.0001C4.34318 24.9999 3.00001 23.6567 3.00001 21.9998V13.2081C2.85095 13.1192 2.70782 13.0236 2.57163 12.9212C1.65826 12.2363 1 11.2136 1 9.99987C1 9.91811 1.0101 9.83655 1.02989 9.75736L3.02982 1.75727ZM19.9999 14.0002C20.3404 14.0002 20.6749 13.9732 20.9999 13.921V22.0001C20.9999 22.5524 20.5522 23.0002 19.9999 23.0002H6.00006C5.44777 23.0002 4.99998 22.5524 4.99998 22.0001V13.921C5.32484 13.9732 5.65961 14.0002 6.00006 14.0002C7.31906 14.0002 8.57298 13.591 9.49999 12.8674C10.427 13.5909 11.6809 14.0002 12.9999 14.0002C14.3191 14.0002 15.573 13.591 16.5 12.8674C17.4269 13.5909 18.681 14.0002 20 14.0002H19.9999ZM4.78075 2.9999L3.00443 10.1055C3.03908 10.5181 3.27921 10.9522 3.77155 11.3214C4.30625 11.7227 5.09075 12.0002 6.00001 12.0002C7.25607 12.0002 8.23897 11.4768 8.69603 10.859C8.88469 10.604 9.18282 10.4537 9.49994 10.4537C9.81705 10.4537 10.1152 10.604 10.3038 10.859C10.7609 11.4768 11.7438 12.0002 12.9999 12.0002C14.2561 12.0002 15.2388 11.4768 15.6961 10.859C15.8847 10.604 16.1829 10.4537 16.5 10.4537C16.8171 10.4537 17.1153 10.604 17.3039 10.859C17.761 11.4768 18.7439 12.0002 19.9999 12.0002C20.909 12.0002 21.6937 11.7227 22.2284 11.3214C22.7207 10.9522 22.9608 10.518 22.9955 10.1055L21.2192 2.9999H4.78075Z" fill="white"/>
</svg>
