<svg width="26" height="26" viewBox="0 0 26 26" fill="none" xmlns="http://www.w3.org/2000/svg">
<path d="M23.1689 23.1804H20.1334V10.4318C20.1334 9.92883 19.7258 9.52123 19.2228 9.52123C18.7198 9.52123 18.3122 9.92884 18.3122 10.4318V23.1804H14.6698V13.7705H14.6695C14.6695 13.2675 14.2619 12.8599 13.7589 12.8599C13.2562 12.8599 12.8483 13.2676 12.8483 13.7705V23.1804H9.20595V16.8059C9.20595 16.3032 8.79809 15.8953 8.29535 15.8953C7.79235 15.8953 7.38475 16.3032 7.38475 16.8059V23.1804H3.74235V8.00327H3.7421C3.7421 7.50027 3.33449 7.09267 2.8315 7.09267C2.3285 7.09267 1.9209 7.50027 1.9209 8.00327V24.0911C1.9209 24.5941 2.32851 25.0018 2.8315 25.0018H23.1689C23.6716 25.0018 24.0795 24.5941 24.0795 24.0911C24.0795 23.5884 23.6716 23.1805 23.1689 23.1805L23.1689 23.1804Z" fill="white"/>
<path d="M5.99125 13.8704H6.03982C6.4314 13.8491 15.2464 13.2633 20.4305 4.3241L20.822 6.25471C20.9287 6.74018 21.4049 7.05064 21.8921 6.952C22.3793 6.85335 22.6975 6.38215 22.6069 5.8934L21.7662 1.72869C21.7178 1.49209 21.5774 1.28428 21.3758 1.15109C21.1743 1.01789 20.9282 0.970068 20.6916 1.01839L16.5269 1.85913C16.0414 1.96579 15.7309 2.44199 15.8296 2.92945C15.928 3.41668 16.3992 3.73461 16.8882 3.64398L18.9645 3.22211C14.2958 11.4814 6.29419 12.0307 5.94231 12.0493C5.43931 12.0626 5.04248 12.4812 5.056 12.9842C5.06927 13.4869 5.48789 13.8838 5.99089 13.8705L5.99125 13.8704Z" fill="white"/>
</svg>
