<svg width="26" height="26" viewBox="0 0 26 26" fill="none" xmlns="http://www.w3.org/2000/svg">
<path d="M22.3904 7.91788H21.0235V3.62819C21.0235 3.2377 20.8699 2.99994 20.3172 2.99994C19.5352 2.99994 19.5352 3.2377 19.5352 4.01868V7.92356H18.0469C17.4939 7.92356 17.0547 8.2304 17.0547 8.7769L17 17.0983C17 17.5355 17.4145 17.9725 18.1057 17.9725H19.2114V22.1257C19.2114 22.5629 19.3244 22.9999 20.3172 22.9999C21.0083 22.9999 21.0235 22.3716 21.0235 22.3716V17.9725H22.5286C23.0816 17.9725 24 17.6448 24 17.0983V9.09503C24 7.92356 22.9431 7.91788 22.3904 7.91788ZM22.5117 16.9048H18.543V8.7769H22.5117V16.9048Z" fill="white"/>
<path d="M14.4329 6.49267H13.0552V0.999939C13.0552 0.499939 12.9004 0.195496 12.3433 0.195496C11.5552 0.195496 11.5552 0.499939 11.5552 1.49994V6.49994H10.0552C9.49782 6.49994 9.05518 6.89283 9.05518 7.5926L9 18.2477C9 18.8075 9.41782 19.3671 10.1144 19.3671H11.2289V24.685C11.2289 25.2449 11.3428 25.8044 12.3433 25.8044C13.0399 25.8044 13.0552 24.9999 13.0552 24.9999V19.3671H14.5722C15.1295 19.3671 16.0552 18.9474 16.0552 18.2477V7.99994C16.0552 6.49994 14.99 6.49267 14.4329 6.49267ZM14.5552 17.9999H10.5552V7.5926H14.5552V17.9999Z" fill="white"/>
<path d="M6.3904 7.91788H5.02346V3.62819C5.02346 3.2377 4.86986 2.99994 4.31716 2.99994C3.53519 2.99994 3.53519 3.2377 3.53519 4.01868V7.92356H2.04692C1.49392 7.92356 1.05474 8.2304 1.05474 8.7769L1 17.0983C1 17.5355 1.41455 17.9725 2.10572 17.9725H3.21144V22.1257C3.21144 22.5629 3.32444 22.9999 4.31716 22.9999C5.00835 22.9999 5.02346 22.3716 5.02346 22.3716V17.9725H6.52861C7.08161 17.9725 8 17.6448 8 17.0983V9.09503C8 7.92356 6.94314 7.91788 6.3904 7.91788ZM6.51173 16.9048H2.54301V8.7769H6.51173V16.9048Z" fill="white"/>
</svg>
